<?xml version="1.0" encoding="UTF-8" standalone="no"?>
<svg
   version="1.1"
   id="Layer_1"
   x="0px"
   y="0px"
   viewBox="0 0 98.94 122.88"
   style="enable-background:new 0 0 98.94 122.88"
   xml:space="preserve"
   sodipodi:docname="youtube-shorts-icon.svg"
   inkscape:version="1.2.1 (9c6d41e410, 2022-07-14)"
   xmlns:inkscape="http://www.inkscape.org/namespaces/inkscape"
   xmlns:sodipodi="http://sodipodi.sourceforge.net/DTD/sodipodi-0.dtd"
   xmlns="http://www.w3.org/2000/svg"
   xmlns:svg="http://www.w3.org/2000/svg"><defs
     id="defs22" /><sodipodi:namedview
     id="namedview20"
     pagecolor="#ffffff"
     bordercolor="#000000"
     borderopacity="0.25"
     inkscape:showpageshadow="2"
     inkscape:pageopacity="0.0"
     inkscape:pagecheckerboard="0"
     inkscape:deskcolor="#d1d1d1"
     showgrid="false"
     inkscape:zoom="4.2856886"
     inkscape:cx="-25.783488"
     inkscape:cy="45.61694"
     inkscape:window-width="1920"
     inkscape:window-height="1046"
     inkscape:window-x="-11"
     inkscape:window-y="-11"
     inkscape:window-maximized="1"
     inkscape:current-layer="g17" /><style
     type="text/css"
     id="style13"><![CDATA[
	.st0{fill-rule:evenodd;clip-rule:evenodd;fill:#F40407;}
]]></style><g
     id="g17"
     style="fill:#ffffff;stroke:#000000;stroke-width:2.96179448;stroke-miterlimit:6.6;stroke-dasharray:none;stroke-opacity:1;stroke-dashoffset:0;stroke-linejoin:round"
     transform="matrix(0.96038764,0,0,0.95602309,1.9594622,3.2794162)"><path
       class="st0"
       d="m 63.49,2.71 c 11.59,-6.04 25.94,-1.64 32.04,9.83 6.1,11.47 1.65,25.66 -9.94,31.7 l -9.53,5.01 c 8.21,0.3 16.04,4.81 20.14,12.52 6.1,11.47 1.66,25.66 -9.94,31.7 l -50.82,26.7 C 23.85,126.21 9.5,121.81 3.4,110.34 -2.7,98.87 1.75,84.68 13.34,78.64 l 9.53,-5.01 C 14.66,73.33 6.83,68.82 2.73,61.11 -3.37,49.64 1.08,35.45 12.67,29.41 Z M 36.06,42.53 66.82,61.52 36.06,80.42 Z"
       id="path15"
       style="fill:#ffffff;stroke:#000000;stroke-width:4.73594903;stroke-miterlimit:6.6;stroke-dasharray:none;stroke-opacity:1;stroke-dashoffset:12.09326341;stroke-linejoin:round" /><path
       style="fill:#000000;stroke:#000000;stroke-width:1.05887;stroke-linecap:round;stroke-linejoin:round;stroke-miterlimit:6.6;stroke-dasharray:none;stroke-dashoffset:11.5878;stroke-opacity:1"
       d="M 38.9669,62.086422 V 48.285385 l 0.549424,0.29912 c 1.378159,0.750305 21.838222,13.379027 21.843339,13.482533 0.0032,0.06417 -4.79765,3.050679 -10.668495,6.636693 -5.870844,3.586014 -10.910513,6.66936 -11.199265,6.851877 L 38.9669,75.887459 Z m 4.395441,-3.491032 c 0.516002,-0.327071 0.234336,-1.300438 -0.402363,-1.390463 -0.865598,-0.122389 -1.216718,0.605096 -0.593058,1.228756 0.416969,0.416969 0.556856,0.439694 0.995421,0.161707 z"
       id="path5247"
       transform="matrix(1.0412462,0,0,1.0459998,-2.0402826,-3.4302688)" /></g><g
     inkscape:groupmode="layer"
     id="layer1"
     inkscape:label="Layer 1" /><circle
     id="path1292"
     style="fill:#000000;stroke:#000000"
     cx="42.898067"
     cy="57.912392"
     r="0.21081164" /></svg>
